<?xml version="1.0" encoding="UTF-8" standalone="no"?>
<!-- Created with Inkscape (http://www.inkscape.org/) -->

<svg
   width="297mm"
   height="210mm"
   viewBox="0 0 297 210"
   version="1.1"
   id="svg5"
   inkscape:version="1.1.2 (0a00cf5339, 2022-02-04)"
   sodipodi:docname="Logo OSAS.svg"
   xmlns:inkscape="http://www.inkscape.org/namespaces/inkscape"
   xmlns:sodipodi="http://sodipodi.sourceforge.net/DTD/sodipodi-0.dtd"
   xmlns="http://www.w3.org/2000/svg"
   xmlns:svg="http://www.w3.org/2000/svg">
  <sodipodi:namedview
     id="namedview7"
     pagecolor="#ffffff"
     bordercolor="#666666"
     borderopacity="1.0"
     inkscape:pageshadow="2"
     inkscape:pageopacity="0.0"
     inkscape:pagecheckerboard="0"
     inkscape:document-units="mm"
     showgrid="false"
     inkscape:zoom="0.87183926"
     inkscape:cx="349.26163"
     inkscape:cy="458.80017"
     inkscape:window-width="2560"
     inkscape:window-height="1382"
     inkscape:window-x="1920"
     inkscape:window-y="0"
     inkscape:window-maximized="1"
     inkscape:current-layer="layer1" />
  <defs
     id="defs2" />
  <g
     inkscape:label="Ebene 1"
     inkscape:groupmode="layer"
     id="layer1">
    <path
       style="fill:#000000;stroke-width:0.230351"
       d="m 100.81921,127.1441 c -0.0872,-0.0825 -0.15246,-2.72857 -0.14495,-5.8802 0.0116,-4.90242 0.0787,-5.95675 0.46367,-7.29813 0.2475,-0.86233 1.95909,-7.76662 3.80351,-15.342853 1.84444,-7.57624 3.46112,-13.90098 3.59264,-14.05497 0.1682,-0.19694 1.11561,-0.27998 3.19424,-0.27998 h 2.95511 l 1.10239,-0.92547 c 1.40191,-1.1769 2.31657,-1.5386 4.28544,-1.69466 2.20218,-0.17456 3.8227,0.30848 5.38357,1.60472 l 1.22273,1.01541 h 23.80039 c 18.75549,0 23.85084,0.0593 24.03833,0.27998 0.13085,0.15399 1.32399,4.76525 2.6514,10.24724 2.58763,10.686533 3.13785,12.910753 4.41239,17.836913 l 0.81914,3.16601 -0.0634,5.68134 -0.0634,5.68134 -40.64734,0.0566 c -22.35604,0.0311 -40.71871,-0.0108 -40.80595,-0.0933 z m 79.91345,-5.67488 v -4.25568 H 141.52577 102.3189 v 4.25568 4.25568 h 39.20687 39.20689 z m -0.2369,-6.23088 c 0,-0.10084 -0.15308,-0.68039 -0.34018,-1.28791 -0.3491,-1.13357 -2.47028,-9.6881 -5.30017,-21.375073 l -1.59996,-6.60751 -22.89639,-0.0571 -22.89641,-0.0571 0.2207,0.72758 c 0.88471,2.91658 -0.77382,6.29471 -3.80658,7.75339 -1.34713,0.64793 -1.61155,1.07771 -1.32566,2.15467 0.087,0.32775 0.36775,0.55269 0.78955,0.6326 1.00563,0.19052 2.66606,1.4415 3.04178,2.29168 0.70688,1.599563 0.22476,3.083673 -1.36024,4.187233 -1.28449,0.89434 -2.32443,1.17638 -4.34358,1.17804 -2.49771,0.002 -4.31634,-0.77134 -5.2121,-2.21651 -1.30787,-2.11001 -0.41896,-4.140243 2.31303,-5.282843 1.08853,-0.45526 1.12232,-0.4985 1.12232,-1.4364 0,-0.94616 -0.0241,-0.97571 -1.116,-1.36999 -3.04852,-1.10076 -5.02159,-4.89318 -4.10974,-7.89929 l 0.22295,-0.735 -2.05606,0.0645 -2.05604,0.0645 -2.77099,11.42316 c -2.44425,10.076153 -3.8983,15.909443 -4.36882,17.526703 l -0.14663,0.50396 h 38.99761 c 21.44868,0 38.99761,-0.0825 38.99761,-0.18332 z m -43.51637,-7.12809 c -1.83376,-0.61422 -3.23821,-2.68293 -2.82848,-4.16627 0.43428,-1.57224 2.16437,-2.84046 4.3437,-3.1841 2.16566,-0.34148 5.02672,0.79365 5.86546,2.32716 0.75877,1.3873 0.27318,3.30559 -1.0754,4.24828 -1.61565,1.12938 -4.27227,1.45587 -6.30528,0.77493 z m 4.33732,-1.6286 c 1.66878,-0.7165 2.20466,-1.93616 1.26825,-2.88648 -0.89762,-0.91095 -1.84871,-1.21912 -3.46267,-1.12195 -1.63123,0.0982 -2.53869,0.55802 -3.16365,1.60305 -0.31607,0.52852 -0.31583,0.66227 0.002,1.21014 0.46499,0.80103 2.20798,1.62522 3.42381,1.61896 0.52615,-0.003 1.39558,-0.19337 1.93206,-0.42372 z m 7.95644,-1.71847 c -1.51926,-0.7158 -2.22218,-1.61303 -2.36505,-3.0188 -0.21428,-2.108443 1.67084,-3.742033 4.57232,-3.962233 1.94375,-0.14752 3.3815,0.23069 4.58765,1.20682 1.67718,1.357353 1.8476,3.189073 0.43794,4.707073 -1.59653,1.71921 -4.83481,2.19699 -7.23286,1.06714 z m 4.93358,-1.49262 c 0.58015,-0.27718 1.21572,-0.78114 1.41237,-1.11991 0.31803,-0.54788 0.31827,-0.68163 0.002,-1.21015 -0.69468,-1.161583 -1.52802,-1.533643 -3.43505,-1.533643 -1.90703,0 -2.74037,0.37206 -3.43504,1.533643 -0.31608,0.52852 -0.31584,0.66227 0.002,1.21015 0.46416,0.7996 2.20664,1.62387 3.43284,1.62387 0.5311,0 1.44032,-0.22678 2.02047,-0.50396 z m 7.62209,1.49262 c -1.51926,-0.7158 -2.22218,-1.61303 -2.36505,-3.0188 -0.22252,-2.189573 1.70273,-3.780303 4.80299,-3.968423 1.48223,-0.0899 1.9078,-0.0256 3.02077,0.45607 2.8691,1.2419 3.57029,3.852503 1.53557,5.717103 -1.62435,1.48854 -4.78254,1.85612 -6.99428,0.81405 z m 4.84906,-1.42277 c 1.90859,-0.81932 2.17502,-2.19141 0.64041,-3.29809 -0.87788,-0.633083 -2.38288,-0.894663 -3.75113,-0.651973 -1.16013,0.20578 -2.49718,1.343883 -2.49718,2.125643 0,0.66586 0.92081,1.64123 1.8952,2.00751 0.95256,0.35807 2.64668,0.27452 3.7127,-0.18309 z m -26.48544,-3.846873 c -1.33537,-0.18725 -1.98415,-0.48917 -2.99465,-1.39361 -1.89607,-1.69704 -1.33229,-4.31088 1.20279,-5.57655 1.44906,-0.72346 4.34158,-0.71371 5.91744,0.02 2.71452,1.26375 3.13586,4.30443 0.82073,5.9229 -1.30772,0.9142 -3.0993,1.28631 -4.94631,1.02732 z m 3.76629,-2.17784 c 2.09147,-1.40806 0.49656,-3.73405 -2.54949,-3.71813 -3.68867,0.0193 -5.00376,2.87928 -1.89223,4.11514 1.03659,0.41172 3.57785,0.18458 4.44172,-0.39701 z m 9.05668,-0.85518 c -3.54613,-0.58841 -5.30672,-3.35318 -3.57479,-5.6137 1.77923,-2.32223 6.10316,-2.68971 8.60312,-0.73115 2.15909,1.69147 1.62922,4.57754 -1.0588,5.76701 -1.0566,0.46757 -2.96227,0.74497 -3.96953,0.57784 z m 2.42295,-1.68707 c 1.1863,-0.33605 2.31503,-1.31808 2.31503,-2.01413 0,-2.46176 -5.75046,-3.11953 -7.01762,-0.8027 -0.29891,0.54648 -0.31234,0.78171 -0.0756,1.32225 0.29395,0.671 0.7395,0.99701 1.99981,1.46329 0.93579,0.34622 1.63861,0.35413 2.7783,0.0313 z m 9.29634,1.63141 c -3.09556,-0.48897 -4.8365,-2.87889 -3.70342,-5.08397 1.00109,-1.94817 4.07676,-2.97842 6.71536,-2.24943 5.19723,1.43589 4.4778,6.78616 -0.99107,7.37034 -0.58632,0.0626 -1.49572,0.046 -2.02087,-0.0369 z m 2.59445,-1.61203 c 1.14136,-0.29961 2.26921,-1.32251 2.26921,-2.05804 0,-2.28977 -4.82431,-3.06891 -6.72257,-1.08571 -0.9433,0.98549 -0.37249,2.20262 1.39234,2.96884 1.09648,0.47606 1.76772,0.51441 3.06102,0.17491 z m -44.82141,8.201723 c 1.09736,-0.16659 2.55352,-1.40087 2.55352,-2.16441 0,-0.71018 -0.5717,-1.455813 -1.44274,-1.881683 -0.93266,-0.45601 -1.16315,-0.27268 -1.16315,0.92513 0,0.884153 -0.0753,1.027313 -0.64901,1.233543 -0.69324,0.2492 -2.12023,0.0895 -2.60836,-0.29186 -0.16288,-0.12725 -0.29613,-0.67258 -0.29613,-1.211853 0,-1.202 -0.34906,-1.26703 -1.5316,-0.28535 -1.15395,0.957943 -1.15837,1.903763 -0.0133,2.854323 0.45893,0.38097 1.21997,0.74524 1.71752,0.82206 0.49139,0.0759 1.05335,0.16741 1.24879,0.20341 0.35412,0.0652 0.51323,0.0504 2.18447,-0.20331 z m 1.01907,-10.298353 c 1.32643,-0.73495 2.17182,-1.90966 2.51661,-3.4969 0.93643,-4.31098 -4.21804,-7.58065 -8.24222,-5.22835 -1.66576,0.97372 -2.57249,2.464 -2.56706,4.21917 0.007,2.36262 1.31551,4.16655 3.60802,4.97526 1.30994,0.46209 3.37767,0.255 4.68465,-0.46918 z"
       id="path1177" />
    <text
       xml:space="preserve"
       style="font-style:normal;font-weight:normal;font-size:45.8611px;line-height:1.25;font-family:sans-serif;fill:#000000;fill-opacity:1;stroke:none;stroke-width:0.264583"
       x="-1.2199098"
       y="121.13462"
       id="text5327"><tspan
         sodipodi:role="line"
         id="tspan5325"
         style="font-size:45.8611px;stroke-width:0.264583"
         x="-1.2199098"
         y="121.13462">OSA</tspan></text>
    <text
       xml:space="preserve"
       style="font-style:normal;font-weight:normal;font-size:45.8611px;line-height:1.25;font-family:sans-serif;fill:#000000;fill-opacity:1;stroke:none;stroke-width:0.264583"
       x="184.21797"
       y="121.5377"
       id="text27339"><tspan
         sodipodi:role="line"
         id="tspan27337"
         style="font-size:45.8611px;stroke-width:0.264583"
         x="184.21797"
         y="121.5377">Stick</tspan></text>
    <text
       xml:space="preserve"
       style="font-style:normal;font-variant:normal;font-weight:bold;font-stretch:normal;font-size:14.1111px;line-height:1.25;font-family:sans-serif;-inkscape-font-specification:'sans-serif Bold';fill:#000000;fill-opacity:1;stroke:none;stroke-width:0.264583"
       x="25.137804"
       y="145.46855"
       id="text107389"><tspan
         sodipodi:role="line"
         id="tspan107387"
         style="font-style:normal;font-variant:normal;font-weight:bold;font-stretch:normal;font-size:14.1111px;font-family:sans-serif;-inkscape-font-specification:'sans-serif Bold';stroke-width:0.264583"
         x="25.137804"
         y="145.46855">Your Open Source Arcade Stick</tspan></text>
  </g>
</svg>
